<?xml version="1.0" encoding="UTF-8"?>
<svg width="1200pt" height="1200pt" version="1.1" viewBox="0 0 1200 1200" fill="#16a34a" xmlns="http://www.w3.org/2000/svg">
 <path fill="#16a34a" d="m1098.1 1029.2c-52.828-186.61-52.828-384.24 0-570.89 6.1875-21.844-3.1406-45.141-22.688-56.672-19.547-11.578-44.438-8.4844-60.609 7.5-73.922 73.547-136.4 157.74-185.39 249.79-0.32812-12.516-1.3125-24.938-1.3125-37.453 0.046876-137.9 19.078-275.16 56.625-407.86 6.1875-21.844-3.1406-45.141-22.688-56.672-19.594-11.531-44.438-8.4375-60.609 7.5469-175.18 173.39-303.19 388.64-371.95 625.36-13.875-37.922-29.906-75-48-111.09-50.625-99.703-116.91-190.6-196.31-269.29-16.125-15.938-41.016-19.031-60.609-7.5-19.547 11.578-28.875 34.828-22.688 56.672 26.297 92.906 39.609 188.95 39.656 285.47 0 96.516-13.312 192.56-39.609 285.47-1.5469 5.8125-2.0156 11.859-1.4062 17.859-0.046875 0.89062-0.51562 1.6406-0.51562 2.5781h0.046875c0 13.266 5.25 25.969 14.625 35.344s22.078 14.672 35.344 14.672h899.81c13.266 0 25.969-5.2969 35.344-14.672s14.672-22.078 14.672-35.344c0-0.32812-0.1875-0.60937-0.1875-0.9375h-0.046876c0.84375-6.6562 0.32813-13.406-1.5-19.875z"/>
</svg>
